<svg xmlns="http://www.w3.org/2000/svg" xmlns:xlink="http://www.w3.org/1999/xlink" width="500" zoomAndPan="magnify" viewBox="0 0 375 374.999991" height="500" preserveAspectRatio="xMidYMid meet" version="1.0"><defs><clipPath id="1c6d78b9dd"><path d="M 119.902344 22.773438 L 254.902344 22.773438 L 254.902344 157.773438 L 119.902344 157.773438 Z M 119.902344 22.773438 " clip-rule="nonzero"/></clipPath><clipPath id="565b131a0b"><path d="M 187.566406 22.773438 C 150.195312 22.773438 119.902344 53.066406 119.902344 90.4375 C 119.902344 127.808594 150.195312 158.101562 187.566406 158.101562 C 224.9375 158.101562 255.230469 127.808594 255.230469 90.4375 C 255.230469 53.066406 224.9375 22.773438 187.566406 22.773438 Z M 187.566406 22.773438 " clip-rule="nonzero"/></clipPath><clipPath id="d81b8dc342"><path d="M 8 212 L 144 212 L 144 349 L 8 349 Z M 8 212 " clip-rule="nonzero"/></clipPath><clipPath id="70baf4ba2d"><path d="M 50.878906 372.902344 L -16.226562 255.757812 L 100.914062 188.65625 L 168.019531 305.796875 Z M 50.878906 372.902344 " clip-rule="nonzero"/></clipPath><clipPath id="b89aad23b1"><path d="M 50.878906 372.902344 L -16.390625 255.476562 L 101.035156 188.207031 L 168.304688 305.632812 Z M 50.878906 372.902344 " clip-rule="nonzero"/></clipPath><clipPath id="50ebd0ec3d"><path d="M 17.242188 314.1875 C 35.820312 346.613281 77.164062 357.84375 109.589844 339.265625 C 142.015625 320.691406 153.246094 279.347656 134.667969 246.921875 C 116.09375 214.496094 74.75 203.265625 42.324219 221.839844 C 9.898438 240.417969 -1.332031 281.761719 17.242188 314.1875 Z M 17.242188 314.1875 " clip-rule="nonzero"/></clipPath><clipPath id="7b7b46e130"><path d="M 231 214 L 367 214 L 367 351 L 231 351 Z M 231 214 " clip-rule="nonzero"/></clipPath><clipPath id="eca3a36fa8"><path d="M 391.378906 257.699219 L 324.039062 374.703125 L 207.035156 307.363281 L 274.375 190.359375 Z M 391.378906 257.699219 " clip-rule="nonzero"/></clipPath><clipPath id="68e730e5ef"><path d="M 391.378906 257.699219 L 323.875 374.988281 L 206.585938 307.484375 L 274.089844 190.195312 Z M 391.378906 257.699219 " clip-rule="nonzero"/></clipPath><clipPath id="0bd2a9ca5a"><path d="M 357.628906 316.34375 C 376.269531 283.957031 365.125 242.589844 332.734375 223.945312 C 300.347656 205.304688 258.980469 216.449219 240.339844 248.839844 C 221.699219 281.226562 232.84375 322.59375 265.230469 341.234375 C 297.617188 359.878906 338.988281 348.734375 357.628906 316.34375 Z M 357.628906 316.34375 " clip-rule="nonzero"/></clipPath></defs><g clip-path="url(#1c6d78b9dd)"><g clip-path="url(#565b131a0b)"><path stroke-linecap="butt" transform="matrix(0.75, 0, 0, 0.75, 119.902996, 22.772934)" fill="none" stroke-linejoin="miter" d="M 90.217886 0.000671727 C 40.389758 0.000671727 -0.000869435 40.391299 -0.000869435 90.219428 C -0.000869435 140.047556 40.389758 180.438184 90.217886 180.438184 C 140.046015 180.438184 180.436642 140.047556 180.436642 90.219428 C 180.436642 40.391299 140.046015 0.000671727 90.217886 0.000671727 Z M 90.217886 0.000671727 " stroke="#000000" stroke-width="80" stroke-opacity="1" stroke-miterlimit="4"/></g></g><g clip-path="url(#d81b8dc342)"><g clip-path="url(#70baf4ba2d)"><g clip-path="url(#b89aad23b1)"><g clip-path="url(#50ebd0ec3d)"><path stroke-linecap="butt" transform="matrix(-0.372801, -0.650784, 0.650784, -0.372801, 50.87751, 372.900736)" fill="none" stroke-linejoin="miter" d="M 90.220272 -0.00169034 C 40.392511 0.00180948 -0.00145561 40.391327 0.00204421 90.219088 C 0.0010247 140.04426 40.390542 180.438226 90.218303 180.434726 C 140.043475 180.435746 180.437441 140.046229 180.438461 90.221056 C 180.434961 40.393295 140.045444 -0.000670836 90.220272 -0.00169034 Z M 90.220272 -0.00169034 " stroke="#000000" stroke-width="80" stroke-opacity="1" stroke-miterlimit="4"/></g></g></g></g><path stroke-linecap="butt" transform="matrix(0.75, 0, 0, 0.75, 129.634448, 290.630928)" fill="none" stroke-linejoin="miter" d="M -0.00218065 20.002514 L 154.310329 20.002514 " stroke="#000000" stroke-width="40" stroke-opacity="1" stroke-miterlimit="4"/><path stroke-linecap="butt" transform="matrix(-0.370747, -0.651956, 0.651956, -0.370747, 281.217905, 230.50809)" fill="none" stroke-linejoin="miter" d="M -0.0012048 20.000518 L 148.636674 20.00287 " stroke="#000000" stroke-width="40" stroke-opacity="1" stroke-miterlimit="4"/><g clip-path="url(#7b7b46e130)"><g clip-path="url(#eca3a36fa8)"><g clip-path="url(#68e730e5ef)"><g clip-path="url(#0bd2a9ca5a)"><path stroke-linecap="butt" transform="matrix(-0.374122, 0.650025, -0.650025, -0.374122, 391.380418, 257.699983)" fill="none" stroke-linejoin="miter" d="M 90.217098 -0.00105055 C 40.392999 -0.00156894 0.00134842 40.390618 -0.00108596 90.221829 C -0.00160434 140.045928 40.390582 180.437579 90.219196 180.435499 C 140.043295 180.436017 180.434945 140.043831 180.435464 90.219731 C 180.440496 40.393034 140.045711 -0.00313024 90.217098 -0.00105055 Z M 90.217098 -0.00105055 " stroke="#2962ff" stroke-width="80" stroke-opacity="1" stroke-miterlimit="4"/></g></g></g></g><path stroke-linecap="butt" transform="matrix(0.370661, -0.652005, 0.652005, 0.370661, 68.238766, 215.679713)" fill="none" stroke-linejoin="miter" d="M -0.00195015 19.998778 L 154.307981 20.002701 " stroke="#000000" stroke-width="40" stroke-opacity="1" stroke-miterlimit="4"/></svg>