<?xml version="1.0" encoding="UTF-8"?>
<!DOCTYPE svg PUBLIC "-//W3C//DTD SVG 1.1//EN" "http://www.w3.org/Graphics/SVG/1.1/DTD/svg11.dtd">
<svg xmlns="http://www.w3.org/2000/svg" version="1.1" width="1024px" height="1024px" style="shape-rendering:geometricPrecision; text-rendering:geometricPrecision; image-rendering:optimizeQuality; fill-rule:evenodd; clip-rule:evenodd" xmlns:xlink="http://www.w3.org/1999/xlink">
<g><path style="opacity:1" fill="#fefefe" d="M -0.5,-0.5 C 340.833,-0.5 682.167,-0.5 1023.5,-0.5C 1023.5,340.833 1023.5,682.167 1023.5,1023.5C 682.167,1023.5 340.833,1023.5 -0.5,1023.5C -0.5,682.167 -0.5,340.833 -0.5,-0.5 Z"/></g>
<g><path style="opacity:1" fill="#0f1212" d="M 502.5,156.5 C 528.631,155.489 551.965,162.989 572.5,179C 601.477,202.774 623.31,231.94 638,266.5C 663.685,321.412 667.352,377.745 649,435.5C 647.951,436.517 646.784,436.684 645.5,436C 631.509,430.16 617.509,424.66 603.5,419.5C 612.82,390.116 615.654,360.116 612,329.5C 608.841,315.866 605.841,302.199 603,288.5C 598.215,301.247 591.048,312.413 581.5,322C 559.929,336.86 536.262,346.86 510.5,352C 499.5,352.667 488.5,352.667 477.5,352C 447.531,345.105 417.864,346.105 388.5,355C 335.483,377.041 304.316,416.541 295,473.5C 276.882,484.778 260.049,497.778 244.5,512.5C 243.284,472.695 252.451,435.361 272,400.5C 310.692,331.584 369.859,297.418 449.5,298C 451.377,295.749 452.877,293.249 454,290.5C 455.55,281.683 458.383,273.349 462.5,265.5C 468.021,277.854 475.688,288.687 485.5,298C 514.666,315.725 540.832,311.892 564,286.5C 580.832,262.318 578.666,239.818 557.5,219C 519.126,190.069 485.626,194.903 457,233.5C 446.527,248.783 439.027,265.45 434.5,283.5C 416.953,282.983 399.786,285.316 383,290.5C 382.5,290.167 382,289.833 381.5,289.5C 390.987,256.852 406.487,227.519 428,201.5C 444.625,184.868 463.458,171.368 484.5,161C 490.553,159.153 496.553,157.653 502.5,156.5 Z"/></g>
<g><path style="opacity:1" fill="#0f1212" d="M 417.5,366.5 C 419.775,410.692 428.942,453.692 445,495.5C 459.257,531.04 479.757,562.373 506.5,589.5C 495.904,602.353 485.07,615.019 474,627.5C 417.314,568.234 383.981,497.568 374,415.5C 372.602,405.193 371.935,394.86 372,384.5C 386.677,377.002 401.844,371.002 417.5,366.5 Z"/></g>
<g><path style="opacity:1" fill="#0f1212" d="M 483.5,423.5 C 515.23,421.521 546.563,424.021 577.5,431C 627.311,443.911 673.644,464.411 716.5,492.5C 717.601,510.16 714.268,526.993 706.5,543C 706.15,544.257 705.483,544.591 704.5,544C 664.221,516.028 620.554,494.695 573.5,480C 535.59,469.539 497.59,469.039 459.5,478.5C 456.007,474.86 453.507,470.527 452,465.5C 447.863,454.777 445.197,443.777 444,432.5C 457.105,428.763 470.272,425.763 483.5,423.5 Z"/></g>
<g><path style="opacity:1" fill="#0f1212" d="M 574.5,498.5 C 590.051,503.61 605.385,509.277 620.5,515.5C 599.262,577.836 564.596,631.336 516.5,676C 495.753,694.881 472.753,710.548 447.5,723C 446.5,723.667 445.5,723.667 444.5,723C 438.333,716.833 432.167,710.667 426,704.5C 422.201,698.403 418.035,692.569 413.5,687C 448.854,670.646 479.354,647.813 505,618.5C 527.973,592.58 546.973,563.914 562,532.5C 567.063,521.477 571.229,510.144 574.5,498.5 Z"/></g>
<g><path style="opacity:1" fill="#0f1212" d="M 672.5,320.5 C 726.155,354.349 761.321,402.016 778,463.5C 788.165,512.858 779.498,558.524 752,600.5C 750.087,604.471 750.087,608.471 752,612.5C 756.833,619.5 761.667,626.5 766.5,633.5C 766.167,633.833 765.833,634.167 765.5,634.5C 747.251,629.439 729.584,630.939 712.5,639C 696.214,651.081 689.381,667.248 692,687.5C 697.24,714.241 713.407,728.908 740.5,731.5C 784.755,726.411 804.255,701.744 799,657.5C 797.05,647.982 793.717,638.982 789,630.5C 783.754,621.424 777.921,612.757 771.5,604.5C 779.796,589.234 786.463,573.234 791.5,556.5C 814.458,584.082 830.292,615.416 839,650.5C 843.978,678.35 839.311,704.35 825,728.5C 800.687,756.572 769.854,771.739 732.5,774C 698.909,777.157 666.243,773.157 634.5,762C 593.443,745.648 558.11,721.148 528.5,688.5C 539.794,677.038 550.96,665.371 562,653.5C 584.47,678.282 609.97,699.115 638.5,716C 648.919,720.305 659.253,723.805 669.5,726.5C 652.569,706.294 647.403,683.294 654,657.5C 658.976,638.214 667.643,620.881 680,605.5C 697.032,588.139 711.365,568.806 723,547.5C 741.775,498.594 735.442,453.261 704,411.5C 695.746,400.575 686.746,390.242 677,380.5C 677.053,360.361 675.553,340.361 672.5,320.5 Z"/></g>
<g><path style="opacity:1" fill="#0f1212" d="M 363.5,458.5 C 365.48,459.848 366.647,461.848 367,464.5C 370.213,478.019 374.046,491.352 378.5,504.5C 346.816,517.5 317.483,534.333 290.5,555C 283.864,560.634 277.531,566.634 271.5,573C 301.067,570.2 325.567,580.033 345,602.5C 350.245,609.324 355.245,616.324 360,623.5C 369.177,639.852 377.844,656.519 386,673.5C 398.082,696.798 413.916,717.298 433.5,735C 472.701,763.694 515.368,770.027 561.5,754C 565.542,752.263 569.542,750.43 573.5,748.5C 588.97,758.774 605.303,767.607 622.5,775C 595.4,793.045 565.733,804.711 533.5,810C 484.944,815.367 441.611,803.033 403.5,773C 380.089,753.27 360.756,730.27 345.5,704C 343.419,703.131 341.253,702.631 339,702.5C 330.361,705.368 321.528,707.368 312.5,708.5C 312.523,706.073 313.023,703.74 314,701.5C 330.603,672.866 327.103,647.033 303.5,624C 274.232,605.191 250.066,610.358 231,639.5C 218.844,662.297 220.177,684.297 235,705.5C 254.067,724.859 277.234,733.359 304.5,731C 315.992,729.419 327.325,727.419 338.5,725C 347.647,739.488 358.313,752.821 370.5,765C 333.318,775.359 295.985,776.026 258.5,767C 197.937,747.407 174.437,706.24 188,643.5C 199.178,600.46 220.178,563.127 251,531.5C 283.33,499.249 320.83,474.915 363.5,458.5 Z"/></g>
</svg>
