<svg xmlns="http://www.w3.org/2000/svg" xmlns:xlink="http://www.w3.org/1999/xlink" width="500" zoomAndPan="magnify" viewBox="0 0 375 374.999991" height="500" preserveAspectRatio="xMidYMid meet" version="1.0"><defs><clipPath id="01bedace8a"><path d="M 118.0625 18.796875 L 256.8125 18.796875 L 256.8125 157.546875 L 118.0625 157.546875 Z M 118.0625 18.796875 " clip-rule="nonzero"/></clipPath><clipPath id="523364e95b"><path d="M 187.570312 18.796875 C 149.179688 18.796875 118.0625 49.917969 118.0625 88.304688 C 118.0625 126.695312 149.179688 157.816406 187.570312 157.816406 C 225.960938 157.816406 257.082031 126.695312 257.082031 88.304688 C 257.082031 49.917969 225.960938 18.796875 187.570312 18.796875 Z M 187.570312 18.796875 " clip-rule="nonzero"/></clipPath><clipPath id="8149ea9694"><path d="M 3 214 L 143 214 L 143 354 L 3 354 Z M 3 214 " clip-rule="nonzero"/></clipPath><clipPath id="9b885522bc"><path d="M 47.15625 378.472656 L -21.8125 258.078125 L 98.582031 189.109375 L 167.550781 309.503906 Z M 47.15625 378.472656 " clip-rule="nonzero"/></clipPath><clipPath id="f38776ce8a"><path d="M 47.15625 378.472656 L -21.949219 257.84375 L 98.679688 188.738281 L 167.785156 309.367188 Z M 47.15625 378.472656 " clip-rule="nonzero"/></clipPath><clipPath id="fd9466f417"><path d="M 12.601562 318.15625 C 31.6875 351.46875 74.160156 363.003906 107.46875 343.921875 C 140.78125 324.839844 152.3125 282.367188 133.230469 249.054688 C 114.148438 215.742188 71.675781 204.210938 38.367188 223.292969 C 5.054688 242.375 -6.480469 284.847656 12.601562 318.15625 Z M 12.601562 318.15625 " clip-rule="nonzero"/></clipPath><clipPath id="7b0ee08a1e"><path d="M 232 216 L 372 216 L 372 356 L 232 356 Z M 232 216 " clip-rule="nonzero"/></clipPath><clipPath id="5e20f940ff"><path d="M 396.941406 260.128906 L 327.726562 380.382812 L 207.472656 311.171875 L 276.6875 190.914062 Z M 396.941406 260.128906 " clip-rule="nonzero"/></clipPath><clipPath id="12dd77c6bb"><path d="M 396.941406 260.128906 L 327.59375 380.617188 L 207.105469 311.269531 L 276.453125 190.78125 Z M 396.941406 260.128906 " clip-rule="nonzero"/></clipPath><clipPath id="995b206a16"><path d="M 362.265625 320.371094 C 381.417969 287.101562 369.96875 244.605469 336.695312 225.453125 C 303.425781 206.304688 260.929688 217.753906 241.777344 251.023438 C 222.628906 284.296875 234.078125 326.792969 267.351562 345.941406 C 300.621094 365.09375 343.117188 353.644531 362.265625 320.371094 Z M 362.265625 320.371094 " clip-rule="nonzero"/></clipPath></defs><g clip-path="url(#01bedace8a)"><g clip-path="url(#523364e95b)"><path stroke-linecap="butt" transform="matrix(0.75, 0, 0, 0.75, 118.060566, 18.79681)" fill="none" stroke-linejoin="miter" d="M 92.679668 0.0000872458 C 41.492164 0.0000872458 0.0025782 41.494882 0.0025782 92.677177 C 0.0025782 143.86468 41.492164 185.359474 92.679668 185.359474 C 143.867171 185.359474 185.361965 143.86468 185.361965 92.677177 C 185.361965 41.494882 143.867171 0.0000872458 92.679668 0.0000872458 Z M 92.679668 0.0000872458 " stroke="#000000" stroke-width="80" stroke-opacity="1" stroke-miterlimit="4"/></g></g><g clip-path="url(#8149ea9694)"><g clip-path="url(#9b885522bc)"><g clip-path="url(#f38776ce8a)"><g clip-path="url(#fd9466f417)"><path stroke-linecap="butt" transform="matrix(-0.372801, -0.650784, 0.650784, -0.372801, 47.154611, 378.471186)" fill="none" stroke-linejoin="miter" d="M 92.681585 -0.0019101 C 41.49138 0.00142131 -0.00328612 41.495089 -0.00188515 92.678185 C -0.00307307 143.865801 41.493183 185.355948 92.680799 185.357136 C 143.868415 185.358324 185.358562 143.862067 185.357161 92.678971 C 185.358349 41.491355 143.864681 -0.00331108 92.681585 -0.0019101 Z M 92.681585 -0.0019101 " stroke="#000000" stroke-width="80" stroke-opacity="1" stroke-miterlimit="4"/></g></g></g></g><path stroke-linecap="butt" transform="matrix(0.75, 0, 0, 0.75, 128.057252, 293.614433)" fill="none" stroke-linejoin="miter" d="M 0.00178888 20.998466 L 158.512216 20.998466 " stroke="#000000" stroke-width="42" stroke-opacity="1" stroke-miterlimit="4"/><path stroke-linecap="butt" transform="matrix(-0.375, -0.649519, 0.649519, -0.375, 283.531275, 232.454531)" fill="none" stroke-linejoin="miter" d="M 0.00115657 21.001748 L 176.172954 20.99869 " stroke="#000000" stroke-width="42" stroke-opacity="1" stroke-miterlimit="4"/><g clip-path="url(#7b0ee08a1e)"><g clip-path="url(#5e20f940ff)"><g clip-path="url(#12dd77c6bb)"><g clip-path="url(#995b206a16)"><path stroke-linecap="butt" transform="matrix(-0.374122, 0.650025, -0.650025, -0.374122, 396.940819, 260.127962)" fill="none" stroke-linejoin="miter" d="M 92.679664 0.00261495 C 41.495043 -0.00208454 0.00147885 41.493036 -0.000622571 92.682171 C -0.000807999 143.864193 41.494313 185.357757 92.678933 185.362457 C 143.86547 185.360044 185.359034 143.864924 185.356621 92.678387 C 185.361321 41.493766 143.8662 0.000202307 92.679664 0.00261495 Z M 92.679664 0.00261495 " stroke="#2962ff" stroke-width="80" stroke-opacity="1" stroke-miterlimit="4"/></g></g></g></g><path stroke-linecap="butt" transform="matrix(0.370661, -0.652005, 0.652005, 0.370661, 64.691127, 216.792101)" fill="none" stroke-linejoin="miter" d="M 0.00176721 20.998356 L 158.514689 20.997376 " stroke="#000000" stroke-width="42" stroke-opacity="1" stroke-miterlimit="4"/></svg>