<svg width="182" height="64" viewBox="0 0 182 64" fill="none" xmlns="http://www.w3.org/2000/svg">
<g clip-path="url(#clip0_308_290)">
<g clip-path="url(#clip1_308_290)">
<path d="M1.47086 54.9761H2.82696L1.56682 60.2394C1.3798 61.0203 1.41505 61.6083 1.67354 62.0004C1.93105 62.393 2.41034 62.5893 3.11091 62.5893C3.80707 62.5893 4.3779 62.393 4.8239 62.0004C5.27038 61.6083 5.58713 61.0203 5.77414 60.2394L7.03379 54.9761H8.40751L7.11653 60.3697C6.83601 61.5417 6.33616 62.419 5.62042 63.0006C4.90418 63.5832 3.9652 63.874 2.80346 63.874C1.64074 63.874 0.84324 63.5837 0.408996 63.0035C-0.025738 62.4239 -0.101621 61.5456 0.179879 60.3697L1.47086 54.9761Z" fill="#696A6A"/>
<path d="M8.22534 63.6434L10.3824 54.633L14.481 59.9315C14.5907 60.0808 14.7013 60.2409 14.8105 60.4108C14.9197 60.5807 15.0313 60.7716 15.1458 60.9851L16.5847 54.9761H17.8541L15.6986 63.9797L11.5138 58.5867C11.4016 58.4413 11.2974 58.2876 11.1999 58.1255C11.1015 57.9635 11.0129 57.7936 10.9317 57.6164L9.48891 63.6434H8.22534Z" fill="#696A6A"/>
<path d="M17.7417 63.6434L19.8165 54.9762H21.1892L19.1149 63.6434H17.7417Z" fill="#696A6A"/>
<path d="M21.0889 63.6434L23.1636 54.9762H27.8782L27.5918 56.1717H24.2505L23.733 58.3326H27.0743L26.7786 59.5698H23.4368L22.4621 63.6434H21.0889Z" fill="#696A6A"/>
<path d="M27.3159 63.6434L29.3907 54.9762H30.7634L28.6891 63.6434H27.3159Z" fill="#696A6A"/>
<path d="M30.6631 63.6434L32.7379 54.9762H37.4524L37.166 56.1717H33.8247L33.3043 58.3444H36.6456L36.3499 59.582H33.0086L32.3379 62.3823H35.6792L35.3776 63.6434H30.6631Z" fill="#696A6A"/>
<path d="M38.6314 62.3703H39.7857C40.4202 62.3703 40.9069 62.3267 41.2451 62.24C41.5834 62.1534 41.8938 62.007 42.1783 61.8019C42.5645 61.5223 42.8871 61.1738 43.1466 60.7571C43.4056 60.341 43.6019 59.8558 43.7341 59.3031C43.8658 58.7504 43.902 58.2667 43.8423 57.8511C43.7821 57.434 43.6264 57.0859 43.3743 56.8054C43.1848 56.6007 42.9346 56.4539 42.6223 56.3667C42.3095 56.2806 41.8003 56.237 41.0924 56.237H40.596H40.0996L38.6314 62.3703ZM36.9536 63.6436L39.0284 54.9759H40.8804C42.0847 54.9759 42.917 55.0375 43.3782 55.1619C43.8384 55.2867 44.2188 55.4953 44.5179 55.7871C44.9149 56.1699 45.1675 56.6614 45.2762 57.2607C45.3844 57.8609 45.3462 58.5458 45.1622 59.3154C44.9781 60.085 44.6887 60.7669 44.2942 61.3608C43.9005 61.9551 43.4124 62.4452 42.8318 62.8319C42.3927 63.1242 41.9217 63.3323 41.4214 63.4571C40.9196 63.581 40.1715 63.6436 39.1748 63.6436H38.8051H36.9536Z" fill="#696A6A"/>
<path d="M51.8488 58.5996H52.2013C52.9626 58.5996 53.4908 58.5139 53.7855 58.3445C54.0807 58.1751 54.279 57.875 54.3818 57.4447C54.4925 56.983 54.4352 56.657 54.209 56.468C53.9828 56.2785 53.507 56.1831 52.78 56.1831H52.4275L51.8488 58.5996ZM51.486 59.753L50.5549 63.6436H49.2683L51.3436 54.9763H53.4208C54.0362 54.9763 54.4812 55.0106 54.7554 55.0796C55.0285 55.1481 55.2542 55.2622 55.4324 55.4203C55.6493 55.6215 55.7918 55.8928 55.8603 56.234C55.9284 56.5757 55.9137 56.9517 55.8158 57.3615C55.7169 57.7722 55.5514 58.1511 55.3184 58.4987C55.0853 58.8458 54.8121 59.1185 54.4998 59.3153C54.2462 59.4734 53.9667 59.586 53.6602 59.6526C53.3532 59.7202 52.8926 59.753 52.2772 59.753H52.0064H51.486Z" fill="#696A6A"/>
<path d="M57.511 60.2394H59.8654L59.4722 58.2616C59.4536 58.1358 59.436 57.9908 59.4208 57.8268C59.4066 57.6628 59.3969 57.4802 59.3905 57.279C59.2994 57.4685 59.2079 57.6452 59.1163 57.8092C59.0253 57.9727 58.9367 58.1235 58.8495 58.2616L57.511 60.2394ZM60.4935 63.6434L60.069 61.4114H56.7219L55.2067 63.6434H53.7649L60.0122 54.6329L61.9416 63.6434H60.4935Z" fill="#696A6A"/>
<path d="M63.9097 63.6434L64.8585 59.6765L63.1392 54.9762H64.5819L65.6492 57.9185C65.6736 57.9938 65.703 58.0923 65.7368 58.2146C65.7711 58.337 65.8044 58.4687 65.8357 58.6112C65.9218 58.4731 66.0105 58.3419 66.0991 58.22C66.1877 58.0976 66.2773 57.9855 66.3678 57.8827L68.8808 54.9762H70.2545L66.2205 59.6765L65.2712 63.6434H63.9097Z" fill="#696A6A"/>
<path d="M77.0126 59.3626C77.0131 59.2955 77.0327 59.1105 77.0709 58.8065C77.1003 58.5538 77.1233 58.3443 77.1399 58.1784C77.0582 58.3761 76.9617 58.5739 76.8511 58.7707C76.74 58.968 76.6127 59.1692 76.4673 59.3748L73.1514 63.9929L72.0695 59.2804C72.0235 59.0865 71.9882 58.899 71.9647 58.7179C71.9412 58.5362 71.9251 58.3566 71.9172 58.1784C71.8702 58.3605 71.8105 58.5504 71.7376 58.7502C71.6646 58.9494 71.5775 59.158 71.4752 59.3748L69.5473 63.6434H68.2842L72.443 54.6084L73.6268 60.0793C73.6439 60.166 73.6689 60.3104 73.6993 60.5116C73.7296 60.7128 73.7654 60.9615 73.807 61.2572C73.947 61.0085 74.1487 60.6932 74.414 60.3104C74.4845 60.2076 74.5384 60.1288 74.5746 60.0735L78.3183 54.6084L78.1984 63.6434H76.9226L77.0126 59.3626Z" fill="#696A6A"/>
<path d="M79.2947 63.6434L81.3699 54.9762H86.0845L85.7981 56.1717H82.4563L81.9364 58.3444H85.2777L84.982 59.582H81.6402L80.97 62.3823H84.3113L84.0087 63.6434H79.2947Z" fill="#696A6A"/>
<path d="M85.5852 63.6434L87.7422 54.633L91.8409 59.9315C91.9505 60.0808 92.0612 60.2409 92.1703 60.4108C92.2795 60.5807 92.3911 60.7716 92.5057 60.9851L93.9445 54.9761H95.2145L93.0584 63.9797L88.8736 58.5867C88.7615 58.4413 88.6572 58.2876 88.5598 58.1255C88.4614 57.9635 88.3728 57.7936 88.2915 57.6164L86.8488 63.6434H85.5852Z" fill="#696A6A"/>
<path d="M99.5962 56.1718L97.8078 63.6436H96.4345L98.2224 56.1718H95.9778L96.2642 54.9763H102.115L101.83 56.1718H99.5962Z" fill="#696A6A"/>
<path d="M101.021 61.9084L102.242 61.388C102.255 61.7743 102.374 62.0695 102.602 62.2727C102.83 62.4763 103.16 62.5777 103.592 62.5777C103.999 62.5777 104.351 62.4611 104.647 62.2281C104.943 61.9956 105.139 61.6837 105.232 61.293C105.354 60.7834 105.05 60.3296 104.323 59.9316C104.221 59.8723 104.143 59.8287 104.089 59.8008C103.269 59.3353 102.749 58.9137 102.53 58.5368C102.311 58.1598 102.266 57.6991 102.396 57.1547C102.565 56.4483 102.936 55.876 103.508 55.4378C104.081 54.9997 104.745 54.7803 105.504 54.7803C106.127 54.7803 106.619 54.9037 106.979 55.1505C107.339 55.3977 107.545 55.7516 107.596 56.2133L106.387 56.7817C106.282 56.5095 106.144 56.3102 105.973 56.1834C105.801 56.0571 105.584 55.994 105.323 55.994C104.953 55.994 104.636 56.0934 104.371 56.2897C104.108 56.4875 103.935 56.7518 103.855 57.0838C103.731 57.6046 104.092 58.0898 104.938 58.5397C105.003 58.575 105.054 58.6034 105.091 58.6229C105.832 59.017 106.313 59.4033 106.534 59.7803C106.756 60.1577 106.799 60.6282 106.664 61.1922C106.467 62.0137 106.059 62.6658 105.44 63.149C104.82 63.6322 104.081 63.874 103.223 63.874C102.503 63.874 101.954 63.7046 101.576 63.3649C101.198 63.0256 101.012 62.5404 101.021 61.9084Z" fill="#696A6A"/>
<path d="M111.167 63.6434L113.242 54.9762H114.615L112.541 63.6434H111.167Z" fill="#696A6A"/>
<path d="M114.515 63.6434L116.672 54.633L120.77 59.9315C120.88 60.0808 120.991 60.2409 121.1 60.4108C121.209 60.5807 121.321 60.7716 121.435 60.9851L122.874 54.9761H124.143L121.988 63.9797L117.803 58.5867C117.691 58.4413 117.586 58.2876 117.489 58.1255C117.391 57.9635 117.302 57.7936 117.22 57.6164L115.778 63.6434H114.515Z" fill="#696A6A"/>
<path d="M128.526 56.1718L126.737 63.6436H125.364L127.152 56.1718H124.907L125.194 54.9763H131.045L130.759 56.1718H128.526Z" fill="#696A6A"/>
<path d="M130.021 63.6434L132.095 54.9762H136.81L136.524 56.1717H133.183L132.662 58.3444H136.003L135.707 59.582H132.366L131.696 62.3823H135.037L134.735 63.6434H130.021Z" fill="#696A6A"/>
<path d="M138.875 58.6698H139.123C139.85 58.6698 140.354 58.5837 140.634 58.4099C140.914 58.2361 141.108 57.9286 141.212 57.486C141.327 57.0087 141.28 56.6719 141.07 56.4771C140.862 56.2807 140.411 56.1833 139.719 56.1833H139.47L138.875 58.6698ZM138.526 59.765L137.597 63.6433H136.311L138.386 54.976H140.302C140.863 54.976 141.29 55.0133 141.581 55.0886C141.873 55.1635 142.108 55.2874 142.286 55.4617C142.497 55.6702 142.635 55.9415 142.698 56.2729C142.76 56.6038 142.744 56.9671 142.65 57.3612C142.484 58.0559 142.19 58.5998 141.769 58.9929C141.348 59.3851 140.809 59.6215 140.151 59.6999L142.117 63.6433H140.564L138.682 59.765H138.526Z" fill="#696A6A"/>
<path d="M142.93 63.6434L145.005 54.9762H149.72L149.434 56.1717H146.092L145.575 58.3326H148.916L148.62 59.5698H145.279L144.304 63.6434H142.93Z" fill="#696A6A"/>
<path d="M151.311 60.2394H153.666L153.273 58.2616C153.254 58.1358 153.237 57.9908 153.222 57.8268C153.207 57.6628 153.198 57.4802 153.191 57.279C153.1 57.4685 153.008 57.6452 152.917 57.8092C152.826 57.9727 152.737 58.1235 152.65 58.2616L151.311 60.2394ZM154.294 63.6434L153.87 61.4114H150.523L149.007 63.6434H147.565L153.813 54.6329L155.742 63.6434H154.294Z" fill="#696A6A"/>
<path d="M164.682 57.0835C164.375 56.7442 164.025 56.4897 163.633 56.3198C163.241 56.1509 162.806 56.0652 162.329 56.0652C161.406 56.0652 160.582 56.3692 159.858 56.9768C159.132 57.5848 158.655 58.372 158.423 59.3394C158.199 60.275 158.297 61.046 158.715 61.6536C159.133 62.2616 159.771 62.5662 160.629 62.5662C161.129 62.5662 161.627 62.4751 162.122 62.2935C162.618 62.1118 163.118 61.8377 163.62 61.47L163.239 63.0631C162.805 63.3353 162.354 63.5389 161.887 63.6726C161.42 63.8067 160.933 63.8738 160.425 63.8738C159.779 63.8738 159.207 63.7656 158.711 63.5482C158.215 63.3313 157.809 63.0121 157.495 62.5892C157.183 62.175 156.983 61.6869 156.897 61.1239C156.81 60.5619 156.843 59.9626 156.995 59.3267C157.147 58.6917 157.401 58.0949 157.756 57.5364C158.11 56.9778 158.548 56.4872 159.068 56.0652C159.59 55.6388 160.148 55.3167 160.743 55.0969C161.337 54.8785 161.951 54.7684 162.582 54.7684C163.078 54.7684 163.534 54.8428 163.948 54.9911C164.363 55.1385 164.746 55.3622 165.098 55.6633L164.682 57.0835Z" fill="#696A6A"/>
<path d="M164.814 63.6434L166.889 54.9762H171.604L171.317 56.1717H167.977L167.456 58.3444H170.797L170.501 59.582H167.16L166.49 62.3823H169.831L169.529 63.6434H164.814Z" fill="#696A6A"/>
<path d="M139.766 47.4232H130.326L143.455 0.00635909H152.896L139.766 47.4232Z" fill="#66686C"/>
<path d="M134.865 1.50543C134.211 0.603165 133.201 0.147868 131.83 0.147868H79.9185L77.3473 9.43492H86.793V9.42954H124.572L121.824 19.354H84.0436L84.047 19.3334H74.6053L66.7688 47.624H76.2154L81.4744 28.6357H123.942C125.268 28.6357 126.517 28.1833 127.691 27.2786C128.862 26.3729 129.633 25.2562 130.003 23.9226L135.261 4.93043C135.645 3.55231 135.513 2.40868 134.865 1.50543Z" fill="#66686C"/>
<path d="M61.2679 44.4633C60.7466 46.3408 59.037 47.6396 57.088 47.6396H8.38069C7.05347 47.6396 6.067 47.1873 5.41833 46.2836C4.77014 45.3788 4.63111 44.2597 5.00171 42.9266L16.8864 0.144953H26.3355L15.7202 38.3555H53.5176L64.1329 0.144953H73.58L61.2679 44.4633Z" fill="#66686C"/>
<path d="M169.201 0.0951072L181.153 23.865L156.027 47.6285L169.201 0.0951072Z" fill="#27803B"/>
<path d="M160.822 0.0951072L172.765 23.865L147.63 47.6285L160.822 0.0951072Z" fill="#E9661C"/>
</g>
</g>
<defs>
<clipPath id="clip0_308_290">
<rect width="181.156" height="64" fill="white"/>
</clipPath>
<clipPath id="clip1_308_290">
<rect width="181.156" height="64" fill="white"/>
</clipPath>
</defs>
</svg>
